<?xml version="1.0" encoding="UTF-8" standalone="no"?>
<!-- Created with Inkscape (http://www.inkscape.org/) -->

<svg
   width="56.879505mm"
   height="56.87952mm"
   viewBox="0 0 56.879505 56.87952"
   version="1.1"
   id="svg1"
   xml:space="preserve"
   sodipodi:docname="qaSBTB.svg"
   inkscape:version="1.4.4 (dcaf3e7, 2026-05-05)"
   xmlns:inkscape="http://www.inkscape.org/namespaces/inkscape"
   xmlns:sodipodi="http://sodipodi.sourceforge.net/DTD/sodipodi-0.dtd"
   xmlns="http://www.w3.org/2000/svg"
   xmlns:svg="http://www.w3.org/2000/svg"><sodipodi:namedview
     id="namedview1"
     pagecolor="#ffffff"
     bordercolor="#000000"
     borderopacity="0.25"
     inkscape:showpageshadow="2"
     inkscape:pageopacity="0.0"
     inkscape:pagecheckerboard="0"
     inkscape:deskcolor="#d1d1d1"
     inkscape:document-units="mm"
     inkscape:zoom="4.0668163"
     inkscape:cx="324.45527"
     inkscape:cy="296.17763"
     inkscape:window-width="1920"
     inkscape:window-height="1009"
     inkscape:window-x="-8"
     inkscape:window-y="-8"
     inkscape:window-maximized="1"
     inkscape:current-layer="layer1"><inkscape:page
       x="0"
       y="1.3277653e-20"
       width="56.879505"
       height="56.87952"
       id="page2"
       margin="0"
       bleed="0" /></sodipodi:namedview><defs
     id="defs1"><marker
       markerWidth="0.52499998"
       markerHeight="0.99999994"
       refX="0"
       refY="0"
       orient="auto-start-reverse"
       id="CapTriangle"
       viewBox="0 0 0.525 1"
       inkscape:stockid="Triangle cap"
       style="overflow:visible"
       preserveAspectRatio="xMidYMid"
       inkscape:isstock="true"
       inkscape:collect="always"><path
         style="fill:context-stroke;stroke-linecap:butt"
         d="M 0,-1 1,0 0,1 -0.05,0 Z"
         sodipodi:nodetypes="sssssscsss"
         transform="scale(0.5)"
         id="path61" /></marker></defs><g
     inkscape:label="Camada 1"
     inkscape:groupmode="layer"
     id="layer1"
     transform="translate(-320.01667,38.849215)"><g
       id="g9"><g
         id="g8"
         transform="translate(83.96529,-79.782723)"
         inkscape:export-filename="g8.png"
         inkscape:export-xdpi="96"
         inkscape:export-ydpi="96"><rect
           style="fill:#550000;stroke-width:0.720118"
           id="rect1-1"
           width="43.701874"
           height="1.6755265"
           x="242.94075"
           y="72.431534"
           inkscape:export-filename="..\rect1-3png"
           inkscape:export-xdpi="96"
           inkscape:export-ydpi="96" /><rect
           style="fill:#806600;stroke-width:0.714705"
           id="rect1-1-1"
           width="43.04726"
           height="1.6755265"
           x="243.2683"
           y="73.377831" /><g
           id="g7"
           transform="matrix(0.78520362,0,0,0.62946921,197.44917,26.788214)"><g
             id="g5"
             transform="translate(1.7021376,-3.1995345)"><g
               id="g4"><path
                 sodipodi:type="star"
                 style="fill:#aa8800;stroke-width:1.948"
                 id="path1"
                 inkscape:flatsided="false"
                 sodipodi:sides="3"
                 sodipodi:cx="87.959106"
                 sodipodi:cy="70.293678"
                 sodipodi:r1="15.531553"
                 sodipodi:r2="7.7657762"
                 sodipodi:arg1="2.6179939"
                 sodipodi:arg2="3.6651914"
                 inkscape:rounded="0"
                 inkscape:randomized="0"
                 d="m 74.508387,78.059455 6.72536,-11.648665 6.72536,-11.648665 6.725359,11.648665 6.725364,11.648665 -13.450723,-10e-7 z"
                 inkscape:transform-center-y="-3.8828882" /><path
                 sodipodi:type="star"
                 style="fill:#d3bc5f;stroke-width:1.948"
                 id="path1-8"
                 inkscape:flatsided="false"
                 sodipodi:sides="3"
                 sodipodi:cx="87.959106"
                 sodipodi:cy="70.293678"
                 sodipodi:r1="15.531553"
                 sodipodi:r2="7.7657762"
                 sodipodi:arg1="2.6179939"
                 sodipodi:arg2="3.6651914"
                 inkscape:rounded="0"
                 inkscape:randomized="0"
                 d="m 74.508387,78.059455 6.72536,-11.648665 6.72536,-11.648665 6.725359,11.648665 6.725364,11.648665 -13.450723,-10e-7 z"
                 inkscape:transform-center-y="-2.7787991"
                 transform="matrix(0.7156526,0,0,0.7156526,36.852068,22.181733)" /><path
                 sodipodi:type="star"
                 style="fill:#d3bc5f;stroke-width:1.948"
                 id="path1-8-1"
                 inkscape:flatsided="false"
                 sodipodi:sides="3"
                 sodipodi:cx="87.959106"
                 sodipodi:cy="70.293678"
                 sodipodi:r1="15.531553"
                 sodipodi:r2="7.7657762"
                 sodipodi:arg1="2.6179939"
                 sodipodi:arg2="3.6651914"
                 inkscape:rounded="0"
                 inkscape:randomized="0"
                 d="m 74.508387,78.059455 6.72536,-11.648665 6.72536,-11.648665 6.725359,11.648665 6.725364,11.648665 -13.450723,-10e-7 z"
                 inkscape:transform-center-y="-2.2752329"
                 transform="matrix(0.58596447,0,0,0.58596447,36.418195,32.319388)" /></g><path
               style="fill:#000000;stroke-width:0.0493512"
               d="m 88.492657,71.882331 c -0.140609,-0.956045 -0.769021,-1.623391 -1.756513,-1.865394 -0.16288,-0.0402 -0.208735,-0.05546 -0.206539,-0.06992 0.0049,-0.03211 -0.0416,-0.101916 -0.07276,-0.109115 -0.01664,-0.0033 -0.04484,0.0057 -0.06329,0.02154 l -0.03356,0.02848 -0.08778,0.581085 -0.08778,0.581068 -0.09135,-0.02143 -0.09134,-0.02143 -0.01487,0.07435 -0.01487,0.07437 -1.128838,-0.261821 -1.128833,-0.26182 -0.03405,-0.09761 c -0.04701,-0.134864 -0.08068,-0.202581 -0.146204,-0.294188 -0.102792,-0.143755 -0.251194,-0.267398 -0.425641,-0.35443 -0.09711,-0.04855 -0.389717,-0.126687 -0.46807,-0.124916 l -0.04475,0.001 -0.123124,0.814668 -0.123125,0.81467 0.02486,0.01346 c 0.06386,0.03565 0.240919,0.08312 0.357334,0.09561 0.360945,0.03881 0.644114,-0.07155 0.851293,-0.331818 l 0.06222,-0.07818 1.131212,0.266028 1.131216,0.266028 -0.01197,0.07885 -0.01196,0.07884 0.09192,0.02157 0.09192,0.02157 -0.08778,0.581079 -0.08778,0.58108 0.0229,0.04175 c 0.01261,0.02299 0.03637,0.04482 0.05242,0.04924 0.03108,0.0073 0.09476,-0.03661 0.09963,-0.06872 0.0022,-0.0145 0.04941,-0.0082 0.212797,0.02866 0.989319,0.222603 1.778963,-0.117322 2.179044,-0.93804 0.05176,-0.106185 0.05089,-0.100769 0.03401,-0.216372 z m -5.01626,-0.989975 c -0.166116,0.271303 -0.407204,0.37233 -0.7764,0.325328 l -0.09631,-0.01223 0.08683,-0.574749 c 0.08481,-0.561355 0.08743,-0.574604 0.109391,-0.569444 0.01236,0.0029 0.07468,0.0248 0.138342,0.04882 0.221608,0.08306 0.419139,0.255735 0.497415,0.435552 0.025,0.05707 0.08395,0.254732 0.08217,0.275526 -4.24e-4,0.0028 -0.01899,0.03458 -0.04183,0.07175 z"
               id="path2"
               inkscape:transform-center-x="1.5262238"
               inkscape:transform-center-y="-1.9600862" /><rect
               style="fill:#d3bc5f;stroke-width:1.948"
               id="rect2"
               width="1.1040891"
               height="3.9563196"
               x="111.97369"
               y="15.476593"
               transform="rotate(30.372872)" /></g><g
             id="g6"
             transform="translate(-7.9326939,2.4354998)"
             style="fill:#786721"><rect
               style="fill:#786721;stroke-width:4.81002"
               id="rect3"
               width="1.228851"
               height="2.2943144"
               x="1134.7142"
               y="-1125.8865"
               transform="matrix(-0.4429644,0.8965392,-0.53347987,0.84581276,0,0)" /></g></g><g
           id="g3"
           transform="matrix(0.80211193,0,0,0.80211193,196.16058,10.896616)"><rect
             style="fill:#800000;stroke-width:1.69531"
             id="rect1"
             width="54.468399"
             height="7.4506865"
             x="58.332714"
             y="74.756042"
             transform="translate(0,3.7041668)" /><text
             xml:space="preserve"
             style="font-weight:bold;font-size:3.81936px;font-family:sans-serif;-inkscape-font-specification:'sans-serif Bold';writing-mode:lr-tb;direction:ltr;fill:#ffffff;stroke-width:0.234333"
             x="80.194817"
             y="84.081947"
             id="text3"><tspan
               sodipodi:role="line"
               id="tspan3"
               style="fill:#ffffff;stroke-width:0.234333"
               x="80.194817"
               y="84.081947">Sandbox Toolbar</tspan></text><text
             xml:space="preserve"
             style="font-weight:bold;font-size:3.81936px;font-family:sans-serif;-inkscape-font-specification:'sans-serif Bold';writing-mode:lr-tb;direction:ltr;fill:#ffffff;stroke-width:0.234333"
             x="60.522995"
             y="83.948265"
             id="text3-2"><tspan
               sodipodi:role="line"
               id="tspan3-7"
               style="fill:#ffffff;stroke-width:0.234333"
               x="60.522995"
               y="83.948265">&lt;/QA&gt;</tspan></text></g><text
           xml:space="preserve"
           style="font-weight:bold;font-size:1.88289px;font-family:sans-serif;-inkscape-font-specification:'sans-serif Bold';writing-mode:lr-tb;direction:ltr;fill:#ffffff;stroke-width:0.115523"
           x="262.13541"
           y="82.328033"
           id="text3-1"
           inkscape:transform-center-x="0.3456207"
           inkscape:transform-center-y="-0.22728499"
           transform="scale(1.0875279,0.91951663)"><tspan
             sodipodi:role="line"
             id="tspan3-4"
             style="fill:#ffffff;stroke-width:0.115523"
             x="262.13541"
             y="82.328033">x</tspan></text><path
           style="fill:#ffffff;fill-opacity:1;stroke:#ffffff;stroke-width:0.340427;stroke-opacity:1"
           d="m 258.69805,82.566067 c 0.51974,0.0027 1.30616,-0.393241 1.60209,-0.806734 0.12977,-0.181326 0.2685,-0.490603 0.30828,-0.687272 0.16985,-0.839738 0.0744,-1.131102 -1.53061,-4.673601 -0.85295,-1.882525 -1.54283,-3.444089 -1.53307,-3.47016 0.01,-0.02606 0.31954,-0.340564 0.6884,-0.698873 0.86484,-0.840071 1.54724,-1.762748 2.04301,-2.762389 1.98004,-3.99239 0.65665,-8.964757 -3.0947,-11.627665 -0.66379,-0.471203 -0.92502,-0.601499 -2.06661,-1.030778 -1.14743,-0.431518 -1.41703,-0.502005 -2.21113,-0.578431 -3.56488,-0.343087 -6.66979,1.070578 -8.75167,3.984658 -0.46375,0.649127 -0.58758,0.898769 -1.01553,2.047531 -0.42557,1.142972 -0.49901,1.425484 -0.57945,2.235538 -0.27901,2.809631 0.68911,5.583246 2.64755,7.585143 1.92949,1.972304 4.5649,2.903798 7.5156,2.65645 0.51245,-0.04296 0.95305,-0.07013 0.97911,-0.06037 0.0261,0.0098 0.75093,1.555408 1.61079,3.434786 1.65975,3.627716 1.80322,3.861205 2.61811,4.260859 0.23122,0.113449 0.53971,0.190238 0.7698,0.191355 z M 248.01863,71.245182 c -0.30389,-0.19169 -0.77497,-0.57977 -1.04679,-0.862491 -1.44663,-1.504621 -2.09726,-3.196193 -2.01919,-5.249741 0.0302,-0.796322 0.0721,-0.984397 0.43969,-1.978189 0.33028,-0.892714 0.48767,-1.208245 0.84143,-1.686366 1.466,-1.981351 3.79163,-3.040212 6.24861,-2.845004 0.5929,0.0471 0.93425,0.135528 1.82442,0.472602 0.99096,0.375184 1.16024,0.467193 1.78074,0.967215 1.90905,1.538386 2.87024,3.806265 2.62219,6.18687 -0.10237,0.982331 -0.61663,2.350107 -1.19334,3.173657 -2.17325,3.103939 -6.23031,3.881974 -9.49784,1.821417 z m 8.17977,-4.74092 c 0.51829,0.04449 0.93637,-0.18918 1.09453,-0.611751 0.1485,-0.396759 -0.0812,-1.643642 -0.45998,-2.496847 -0.41533,-0.935553 -0.93869,-1.638478 -1.70915,-2.295588 -0.47304,-0.403446 -0.65738,-0.501173 -1.66875,-0.884703 -0.95091,-0.360622 -1.24644,-0.437011 -1.80598,-0.466915 -0.99039,-0.05293 -1.43128,0.204289 -1.50182,0.876195 -0.0651,0.620274 0.45632,1.036051 1.31985,1.052423 0.22424,0.0043 0.66694,0.07904 0.98375,0.166191 1.52576,0.419714 2.7196,1.823507 2.93496,3.451099 0.0433,0.327251 0.11575,0.659681 0.161,0.738733 0.10899,0.190374 0.47651,0.456134 0.65159,0.471163 z"
           id="path3" /><path
           style="fill:#ffd42a;fill-opacity:1;stroke:#aa8800;stroke-width:0.0948064;stroke-dasharray:none;stroke-opacity:0.436919;marker-start:url(#CapTriangle)"
           d="m 271.90782,70.666312 c -0.86815,1.419474 -0.86815,1.419474 -0.86815,1.419474"
           id="path7" /></g><rect
         style="fill:#ffffff;fill-opacity:0;stroke:#ffffff;stroke-width:0.148;stroke-opacity:0"
         id="rect4"
         width="56.731518"
         height="56.731518"
         x="320.09067"
         y="-38.775211" /></g></g></svg>
